<?xml version="1.0" encoding="UTF-8" standalone="no"?>
<svg
   xmlns:dc="http://purl.org/dc/elements/1.1/"
   xmlns:cc="http://creativecommons.org/ns#"
   xmlns:rdf="http://www.w3.org/1999/02/22-rdf-syntax-ns#"
   xmlns:svg="http://www.w3.org/2000/svg"
   xmlns="http://www.w3.org/2000/svg"
   id="svg8"
   preserveAspectRatio="xMidYMid meet"
   viewBox="0 0 318.79962 283.46457"
   height="283.46457pt"
   width="318.79962pt"
   version="1.0">
  <defs
     id="defs12" />
  <metadata
     id="metadata2">
Created by potrace 1.15, written by Peter Selinger 2001-2017
<rdf:RDF>
  <cc:Work
     rdf:about="">
    <dc:format>image/svg+xml</dc:format>
    <dc:type
       rdf:resource="http://purl.org/dc/dcmitype/StillImage" />
    <dc:title></dc:title>
  </cc:Work>
</rdf:RDF>
</metadata>
  <g
     style="fill:#000000;stroke:none"
     id="g6"
     transform="matrix(0.08870684,0,0,-0.08870684,-816.45776,831.18309)">
    <path
       id="path4"
       d="M10985.0 9233.0L10980.671779 9224.09398054L10976.3567767 9215.18232754L10972.053541 9206.2654365L10967.7605189 9197.34286698L10963.4771285 9188.41571551L10959.2027435 9179.48461755L10954.9362879 9170.54896641L10950.677702 9161.61004056L10946.4261727 9152.66733944L10942.1815313 9143.72154968L10937.9431206 9134.77218877L10933.7111159 9125.82041217L10929.485395 9116.86664885L10925.2650997 9107.90967568L10921.0499174 9098.94934359L10916.8401309 9089.98670033L10912.6356129 9081.02186204L10908.4359979 9072.05437829L10904.2418336 9063.0856982L10900.0526953 9054.11514612L10895.8679635 9045.14157861L10891.6879502 9036.16580382L10887.5122665 9027.18708382L10883.3418508 9018.20749532L10879.1754906 9009.22444448L10875.0143719 9000.24046418L10870.8577263 8991.25383053L10866.7058226 8982.2650127L10862.5590853 8973.2747751L10858.4170041 8964.28180534L10854.2799219 8955.28658638L10850.1478785 8946.28888513L10846.0212313 8937.28909413L10841.8997558 8928.28626272L10837.7841478 8919.28136483L10833.6744622 8910.27387709L10829.5708031 8901.26326657L10825.4735547 8892.24947673L10821.3831931 8883.23248898L10817.3002185 8874.21213834L10813.2248157 8865.18731007L10809.1586408 8856.15983546L10805.1017178 8847.12752371L10801.0550091 8838.08972705L10797.020985 8829.04845827L10793.0 8820.0L10787.979608 8811.44674441L10782.36201 8803.26456216L10776.522813 8795.23886544L10770.5576437 8787.30760661L10764.5068086 8779.44051656L10758.3933353 8771.62228994L10752.2306416 8763.84240428L10746.0285322 8756.09486027L10739.7924068 8748.37348855L10733.5278458 8740.67572499L10727.238088 8732.99835674L10720.9259782 8725.33925925L10714.594189 8717.69722L10708.2432142 8710.06923692L10701.8754784 8702.45527269L10695.4927227 8694.85494874L10689.094891 8687.26613822L10682.6837087 8679.68914773L10676.2597879 8672.12321496L10669.8236977 8664.56774012L10663.3761849 8657.02250814L10656.9168893 8649.48616021L10650.4475159 8641.95987498L10643.9675978 8634.44240761L10637.4776669 8626.93377337L10630.9780162 8619.43379367L10624.4676581 8611.94089167L10617.9485443 8604.4569419L10611.420542 8596.98147481L10604.883241 8589.51376272L10598.3363904 8582.05331632L10591.7814236 8574.60160938L10585.2174574 8567.15752171L10578.6443702 8559.7208456L10572.0624585 8552.29188665L10565.4714311 8544.87032534L10558.8716649 8537.45663278L10552.2629715 8530.05068028L10545.6457068 8522.65298605L10539.0199359 8515.26377686L10532.3843236 8507.88176003L10525.7403622 8500.50882918L10519.0872364 8493.14434852L10512.424265 8485.78787961L10505.7520583 8478.44045361L10499.0699167 8471.10170209L10492.3775291 8463.77173578L10485.6755762 8456.45180119L10478.9625619 8449.14082178L10472.2385181 8441.8394546L10465.5035564 8434.54850515L10458.7578271 8427.26888778L10452.0 8420.0L10445.2588848 8412.83243996L10438.5019903 8405.68028296L10431.7290489 8398.54243114L10424.9406583 8391.41877369L10418.1382663 8384.31014558L10411.3211256 8377.21514137L10404.4894186 8370.13338941L10397.6442336 8363.06550367L10390.7846168 8356.01003528L10383.9120418 8348.96808076L10377.0267296 8341.93948235L10370.1277548 8334.9229577L10363.2159182 8327.91902406L10356.2909373 8320.92713308L10349.3542337 8313.94848773L10342.4048886 8306.98196374L10335.4437465 8300.02824122L10328.4695056 8293.08588834L10321.4839313 8286.1565596L10314.4855274 8279.23869765L10307.4758737 8272.33382033L10300.4535383 8265.44050244L10293.4190277 8258.55926063L10286.3735414 8251.69130845L10279.3156994 8244.8353712L10272.2461854 8237.9922168L10265.1634666 8231.16049991L10258.0692303 8224.34201621L10250.9631977 8217.53669002L10243.8444763 8210.74389753L10236.7136674 8203.96447825L10229.5701601 8197.19815215L10222.4133966 8190.44473412L10215.2439581 8183.70515445L10208.0620529 8176.98002659L10200.8663513 8170.26857226L10193.6568942 8163.57134942L10186.4338756 8156.88910586L10179.196771 8150.22197852L10171.945117 8143.57022531L10164.6792627 8136.93491378L10157.397543 8130.31534629L10150.101233 8123.71358105L10142.7888148 8117.12922627L10135.4603598 8110.56342695L10128.1145366 8104.016179L10120.7516888 8097.48909537L10113.3694711 8090.98154272L10105.9697401 8084.49674718L10098.5500338 8078.03430411L10091.1096238 8071.59553844L10083.6469501 8065.18128659L10076.1617105 8058.79373114L10068.6530442 8052.43486864L10061.1179364 8046.10524011L10053.5566037 8039.80853409L10045.9662232 8033.54639176L10038.3456751 8027.32247436L10030.6913193 8021.13911965L10023.0 8015.0L10015.371317 8008.89009951L10007.7781314 8002.73860441L10000.2316854 7996.52799969L9992.74948398 7990.23941845L9985.35340688 7983.85087206L9978.06737542 7977.33599117L9970.92125753 7970.67014048L9963.94281186 7963.82835368L9957.15831203 7956.79318823L9950.58764453 7949.55820948L9944.23918269 7942.12829682L9938.10858114 7934.51851263L9932.17946622 7926.7493595L9926.42961467 7918.84591005L9920.83396783 7910.83339311L9915.36641555 7902.73301082L9910.00358532 7894.56355241L9904.72481607 7886.33995513L9899.51214066 7878.07324564L9894.35202464 7869.7741234L9889.23230857 7861.44921433L9884.14401417 7853.1050618L9879.08001661 7844.74700503L9874.03394755 7836.37820555L9869.0 7828.0L9863.98084122 7819.49053772L9858.942529 7810.99146496L9853.88681053 7802.50174256L9848.81635808 7794.02279419L9843.73049597 7785.55113823L9838.63167793 7777.08906436L9833.51937626 7768.63434118L9828.39465562 7760.1877524L9823.25717849 7751.74808914L9818.10745058 7743.31582461L9812.94544231 7734.89082587L9807.77134442 7726.4735881L9802.58497306 7718.06427037L9797.38523237 7709.66185565L9792.17274508 7701.26843623L9786.946821 7692.88435791L9781.70597298 7684.50915361L9776.44869228 7676.14290691L9771.17454184 7667.78813771L9765.88168424 7659.44610381L9760.56686889 7651.11718895L9755.22712364 7642.80416092L9749.85831354 7634.51088519L9744.4521948 7626.23960254L9739.0 7618.0L9733.41374524 7609.78296074L9727.75204344 7601.61866109L9722.02553291 7593.49877736L9716.2433496 7585.41846398L9710.41239309 7577.37357445L9704.53731979 7569.35963874L9698.62310208 7561.37466533L9692.67391943 7553.41709755L9686.69165719 7545.48350196L9680.67978734 7537.57350068L9674.63933369 7529.6842348L9668.57254645 7521.81507502L9662.48092358 7513.96490669L9656.36652929 7506.13375444L9650.22994173 7498.32008436L9644.0715328 7490.52241775L9637.89268602 7482.74082038L9631.69478979 7474.97557398L9625.477224 7467.22464379L9619.24173775 7459.48913346L9612.98829209 7451.76807316L9606.71729493 7444.06119623L9600.42966606 7436.36899207L9594.12398777 7428.689219L9587.80253314 7421.02425203L9581.46452222 7413.37285405L9575.11019677 7405.73513891L9568.73909514 7398.11048093L9562.35202941 7390.49988187L9555.94777016 7382.90201278L9549.52760207 7375.31863701L9543.09050317 7367.74889053L9536.63682136 7360.19364048L9530.16693754 7352.65390006L9523.67953176 7345.12882801L9517.17372833 7337.61825506L9510.64960913 7330.12327254L9504.10746703 7322.64536889L9497.54619917 7315.18461883L9490.96462762 7307.74123766L9484.3617286 7300.31587013L9477.73716944 7292.91022029L9471.08931224 7285.52486142L9464.41809891 7278.16251192L9457.72125426 7270.82390061L9450.9955276 7263.50929234L9444.24016449 7256.22238651L9437.45260344 7248.96578547L9430.63020527 7241.74312136L9423.76855978 7234.55759975L9416.86261809 7227.41370454L9409.90669158 7220.31788209L9402.8935604 7213.27866986L9395.8138248 7206.30772364L9388.6534866 7199.42029347L9381.39220537 7192.6387921L9374.0 7186.0L9366.58717851 7179.29550808L9359.25107419 7172.50630955L9351.99287816 7165.63296139L9344.81447085 7158.67636448L9337.71786243 7151.6372427L9330.70409545 7144.51498898L9323.77544046 7137.30980587L9316.93436261 7130.02167968L9310.18354205 7122.6503566L9303.52546061 7115.19481724L9296.96346362 7107.65437729L9290.50165938 7100.02856868L9284.14321496 7092.31501664L9277.89418572 7084.51393739L9271.75972415 7076.62349052L9265.74477405 7068.64026993L9259.85749342 7060.56365846L9254.10426505 7052.38891357L9248.49590387 7044.11545508L9243.04225384 7035.73891694L9237.75563127 7027.25551948L9232.65080996 7018.66158443L9227.74528432 7009.9532394L9223.05936863 7001.12544911L9218.61713459 6992.17199253L9214.4484546 6983.08728904L9210.59039149 6973.86669851L9207.0883122 6964.50486696L9204.0 6955.0L9207.87008954 6945.81225936L9212.25663171 6936.8585013L9216.96912533 6928.07060206L9221.91765462 6919.41346468L9227.05097231 6910.86597374L9232.33752446 6902.41240342L9237.75604666 6894.04125723L9243.29005451 6885.74581817L9248.92766575 6877.52009197L9254.65889388 6869.3604386L9260.47729299 6861.2617648L9266.37642708 6853.22161977L9272.35023051 6845.23890618L9278.39547293 6837.31018077L9284.50913461 6829.43294874L9290.68759277 6821.60640685L9296.92871347 6813.82857658L9303.22870572 6806.10011823L9309.58667142 6798.4185934L9316.00016016 6790.78388226L9322.46779962 6783.19490151L9328.9876627 6775.65150785L9335.55941538 6768.15196686L9342.1811243 6760.69660313L9348.85225638 6753.28433259L9355.57040714 6745.91630056L9362.33525521 6738.59147125L9369.14695429 6731.30846002L9376.00268537 6724.06916267L9382.90333574 6716.87162312L9389.84843704 6709.71544186L9396.83604685 6702.60179695L9403.86620447 6695.5298896L9410.93740822 6688.50053615L9418.05014536 6681.51262239L9425.20330135 6674.56667783L9432.39775827 6667.6613446L9439.63088273 6660.79868225L9446.90386292 6653.97712907L9454.21618267 6647.19679888L9461.5664945 6640.45858975L9468.9544923 6633.76245028L9476.38093634 6627.10740854L9483.8438095 6620.49500907L9491.34405879 6613.92416985L9498.88078702 6607.39546863L9506.45315949 6600.9094264L9514.06237341 6594.46485045L9521.70674582 6588.06301964L9529.38661778 6581.70350862L9537.10239609 6575.38587563L9544.85254309 6569.11128191L9552.63756168 6562.87922978L9560.4559898 6556.69080661L9568.30841624 6550.54547093L9576.1944624 6544.44346475L9584.11480214 6538.3842335L9592.06708604 6532.36953579L9600.05204575 6526.39877412L9608.0704509 6520.47136314L9616.12104773 6514.58822761L9624.20465916 6508.74877185L9632.32007212 6502.95388566L9640.46608624 6497.20442176L9648.64358613 6491.49975928L9656.85348041 6485.83930101L9665.09358207 6480.22458644L9673.36482866 6474.65500336L9681.66713453 6469.13065604L9689.99938396 6463.65232845L9698.36046881 6458.22077346L9706.75137466 6452.83538249L9715.17309816 6447.49557908L9723.62455703 6442.20211952L9732.10467379 6436.95573136L9740.61341984 6431.75647975L9749.15077126 6426.60443341L9757.71670768 6421.49966516L9766.31121126 6416.44225242L9774.93322292 6411.43287953L9783.58272855 6406.47161014L9792.25971422 6401.55851349L9800.96416517 6396.69366473L9809.69606493 6391.87714521L9818.45435593 6387.10960413L9827.23798192 6382.39166481L9836.04795995 6377.72283417L9844.88529741 6373.10265844L9853.74685842 6368.53283923L9862.63467644 6364.01238314L9871.54767657 6359.54190698L9880.48581127 6355.12149734L9889.44799948 6350.75174422L9898.43520709 6346.43223518L9907.44633973 6342.16355762L9916.48234051 6337.94532867L9925.54209943 6333.77813267L9934.62450524 6329.66252804L9943.73046915 6325.59815095L9952.85886229 6321.58555598L9962.01056696 6317.62440716L9971.18443478 6313.71525434L9980.37931569 6309.85862083L9989.59605309 6306.05418658L9998.83447008 6302.30206845L10008.0933843 6298.60278035L10017.3745746 6294.95565443L10026.6748565 6291.3619743L10035.9969556 6287.82071771L10045.3376763 6284.33312807L10054.6996907 6280.8982351L10064.0797917 6277.51724077L10073.4786638 6274.18990224L10082.8969591 6270.91600848L10092.3333802 6267.69602691L10101.7885355 6264.52976273L10111.2610993 6261.41766858L10120.7516348 6258.35956376L10130.260669 6255.35529573L10139.7849463 6252.4058874L10149.3268368 6249.51059346L10158.8849273 6246.66984301L10168.4596488 6243.88350176L10178.049557 6241.15197689L10187.6550331 6238.47513948L10197.2746017 6235.85337281L10206.9104002 6233.28607507L10216.5608921 6230.77364435L10226.2245398 6228.31644405L10235.9015812 6225.91436735L10245.5922129 6223.56732565L10255.296589 6221.27524734L10265.0130766 6219.03847291L10274.7435097 6216.85653907L10284.4861901 6214.72978906L10294.2394202 6212.65852799L10304.0049031 6210.64233104L10313.7808753 6208.68150099L10323.568929 6206.77565796L10333.3672339 6204.92509789L10343.1756153 6203.12977801L10352.9938535 6201.38966163L10362.8216831 6199.70471681L10372.6587935 6198.07491511L10382.5048284 6196.50023027L10392.3593857 6194.98063697L10402.2235979 6193.51587934L10412.0953655 6192.10618176L10421.9741486 6190.75151355L10431.860904 6189.45164145L10441.7549618 6188.20655603L10451.6556058 6187.01624029L10461.5620743 6185.88066835L10471.4750498 6184.79964595L10481.3936398 6183.77315478L10491.3183695 6182.8010238L10501.2467657 6181.88336449L10511.1806728 6181.01987248L10521.1189369 6180.21052196L10531.0617682 6179.45516395L10541.0078831 6178.75375736L10550.9587155 6178.10606568L10560.9114449 6177.51212788L10570.8686737 6176.97164425L10580.8274401 6176.48463027L10590.7900921 6176.05082283L10600.7535289 6175.67020462L10610.7198451 6175.34253722L10620.688362 6175.06769776L10630.6570393 6174.84557764L10640.6275503 6174.67597378L10650.5976489 6174.55875605L10660.5687148 6174.493735L10670.5395046 6174.48074856L10680.5110621 6174.51962555L10690.4818694 6174.61018843L10700.4526375 6174.75226766L10710.4215784 6174.94565535L10720.3890748 6175.19016758L10730.3553007 6175.48562351L10740.3202226 6175.83183999L10750.2836012 6176.2286263L10760.2449923 6176.67577901L10770.2037497 6177.17307693L10780.1610958 6177.72039511L10790.1138533 6178.31736004L10800.0647938 6178.96393786L10810.0122933 6179.65983341L10819.95648 6180.40485662L10829.8971673 6181.19879586L10839.8319812 6182.04124671L10849.7639024 6182.93225344L10859.6917248 6183.87151424L10869.6139441 6184.85867504L10879.5305092 6185.89350943L10889.4426626 6186.97593628L10899.3494224 6188.10564122L10909.2510471 6189.28244308L10919.1472636 6190.50610039L10929.0372755 6191.77629969L10938.9213183 6193.09285395L10948.798989 6194.45549278L10958.6707357 6195.8640633L10968.5362563 6197.31831038L10978.3945114 6198.81786107L10988.2451175 6200.36242892L10998.0881937 6201.95180435L11007.9242095 6203.58584078L11017.7525598 6205.26421604L11027.5740699 6206.98685252L11037.388265 6208.75345253L11047.1934014 6210.56347401L11056.9910486 6212.41697895L11066.7810247 6214.31371642L11076.5614414 6216.25309141L11086.3339191 6218.23519586L11096.0967835 6220.25946216L11105.8510875 6222.32587787L11115.5979546 6224.4344666L11125.3354625 6226.58459415L11135.0621817 6228.77570569L11144.7798866 6231.00796561L11154.489136 6233.28128407L11164.188739 6235.59516131L11173.8781241 6237.94922988L11183.5575335 6240.34331697L11193.2265509 6242.77708823L11202.8863606 6245.25061702L11212.5362084 6247.76348961L11222.1758054 6250.31540498L11231.8041556 6252.90586667L11241.4233552 6255.53521453L11251.0314509 6258.20269282L11260.6280707 6260.90796296L11270.2146156 6263.65119266L11279.790622 6266.43202938L11289.3550765 6269.24995096L11298.9085316 6272.10489081L11308.4514841 6274.99677605L11317.9843399 6277.92551533L11327.5061855 6280.89061179L11337.0161649 6283.89157296L11346.5141465 6286.92812658L11356.0 6290.0L11355.6666481 6299.72276359L11355.3333297 6309.44455107L11354.9999928 6319.16687568L11354.6666609 6328.88905843L11354.3333178 6338.61156458L11353.9999688 6348.33424281L11353.6666388 6358.05636717L11353.3333058 6367.77858034L11353.0000083 6377.49975708L11352.6667048 6387.22110936L11352.3333969 6396.94259155L11352.0000296 6406.66580471L11351.6666858 6416.38833031L11351.3333599 6426.11033658L11351.0000416 6435.83211971L11350.6666955 6445.55471434L11350.333364 6455.27688358L11350.0 6465.0L11353.999627 6473.57062924L11357.999854 6482.14254435L11361.9996717 6490.71358226L11365.9999694 6499.28564862L11370.0001184 6507.85739657L11373.9999409 6516.42844484L11378.0 6525.0L11382.2413157 6533.55190905L11386.600274 6542.04576368L11391.0430923 6550.4956263L11395.5510396 6558.90974466L11400.1139155 6567.29559978L11404.7236163 6575.65522386L11409.3755431 6583.99132023L11414.0662211 6592.30471676L11418.7947593 6600.59792116L11423.559426 6608.86958293L11428.3610561 6617.1206787L11433.2002295 6625.34954061L11438.0792922 6633.55504047L11443.0013828 6641.73427297L11447.9728594 6649.88539075L11453.0 6658.0L11458.2221216 6665.99984579L11463.4445379 6674.00014313L11468.6668573 6682.00029205L11473.889463 6690.00087944L11479.1110748 6697.99994438L11484.3331608 6705.99973577L11489.555582 6714.00004053L11494.7780248 6722.00037841L11500.0 6730.0L11509.2505111 6730.0L11518.4999625 6730.0L11527.7498904 6730.0L11536.9992806 6730.0L11546.2488257 6730.0L11555.4995931 6730.0L11564.7499612 6730.0L11574.0 6730.0L11583.5692972 6730.10044007L11593.1355654 6730.37523126L11602.6956201 6730.79652608L11612.249981 6731.34717323L11621.79605 6732.01661513L11631.3338869 6732.79930282L11640.8624989 6733.69359859L11650.3784466 6734.70132506L11659.8806943 6735.82855154L11669.3667929 6737.08623679L11678.8335395 6738.49235304L11688.2703711 6740.07491243L11697.6685529 6741.88211688L11707.0 6744.0L11716.7437145 6746.0756391L11726.5655864 6747.74930681L11736.423017 6749.2032285L11746.2997831 6750.51082045L11756.1898921 6751.7106381L11766.0895749 6752.82566885L11775.9983496 6753.87108377L11785.9134034 6754.85707892L11795.832061 6755.79095188L11805.7564851 6756.67849581L11815.6843195 6757.52371217L11825.6154042 6758.32981475L11835.5481209 6759.09915438L11845.4845471 6759.83378279L11855.4229495 6760.53498672L11865.3644513 6761.20386902L11875.3067568 6761.84096489L11885.2513556 6762.44676031L11895.1985659 6763.02137652L11905.1472427 6763.56458415L11915.0965895 6764.07591761L11925.0484353 6764.55476642L11935.0 6765.0L11944.8844448 6765.38823227L11954.7683817 6765.78670665L11964.6518151 6766.19654752L11974.5360142 6766.61905663L11984.4196339 6767.05556418L11994.3010368 6767.50753559L12004.1821484 6767.97677431L12014.0614517 6768.46512558L12023.9398888 6768.97478063L12033.8180587 6769.5081816L12043.6940027 6770.06792793L12053.569668 6770.65717761L12063.441581 6771.27915519L12073.311589 6771.93784949L12083.1791267 6772.63761701L12093.0433672 6773.38337666L12102.903351 6774.18069902L12112.7578499 6775.03588542L12122.6082042 6775.95633962L12132.4498005 6776.94988893L12142.2839882 6778.02602234L12152.1070463 6779.19491068L12161.9171554 6780.46821043L12171.7107989 6781.85871262L12181.485239 6783.38066214L12191.2354332 6785.04919676L12200.9567697 6786.88049218L12210.6431389 6788.89097279L12220.285806 6791.09623133L12229.8780039 6793.510974L12239.4118804 6796.14711664L12248.8790972 6799.01239714L12258.2740561 6802.10995091L12267.5913429 6805.43651564L12276.8270399 6808.98228149L12285.9805457 6812.73189021L12295.0559127 6816.66624138L12304.0610954 6820.76404371L12313.0 6825.0L12321.7648162 6829.17103669L12330.5232483 6833.35529119L12339.2734258 6837.55348576L12348.0169877 6841.76888326L12356.749847 6846.00328294L12365.4714615 6850.26235025L12374.1771908 6854.55382483L12382.8599249 6858.89329013L12391.4997966 6863.3169332L12400.0 6868.0L12408.3378559 6872.63466359L12416.7922199 6877.05847114L12425.2779212 6881.42009612L12433.7813204 6885.74988049L12442.294363 6890.05913053L12450.8144636 6894.35474226L12459.3392409 6898.64055566L12467.8675505 6902.91941147L12476.3983749 6907.1932948L12484.930914 6911.46374801L12493.4647413 6915.7321603L12502.0 6920.0L12510.869704 6924.41746475L12519.7132721 6928.88876056L12528.5184039 6933.43182177L12537.274921 6938.07083594L12545.9654308 6942.83179901L12554.5706383 6947.7450455L12563.0672439 6952.84297776L12571.4296007 6958.15848976L12579.6298945 6963.72091902L12587.641048 6969.55231961L12595.4398263 6975.66373899L12603.0111832 6982.05414275L12610.3499655 6988.71070021L12617.4611191 6995.61146079L12624.3564 7002.72732838L12631.0547853 7010.02867523L12637.5781071 7017.48671601L12643.9493618 7025.07591286L12650.1894952 7032.77278411L12656.318539 7040.55842986L12662.3536476 7048.41639221L12668.3102272 7056.33375677L12674.2015261 7064.30005368L12680.0388962 7072.30689579L12685.8310415 7080.3462178L12691.5862577 7088.41271393L12697.310283 7096.5002918L12703.0094545 7104.6060256L12708.6885108 7112.72667298L12714.3504341 7120.85807897L12720.0 7129.0L12725.4753403 7136.94792985L12730.9172342 7144.91896474L12736.3196648 7152.91794919L12741.6741642 7160.9487647L12746.9714072 7169.01730923L12752.1997256 7177.13011547L12757.3452271 7185.29562947L12762.3903756 7193.52346128L12767.3134037 7201.8253733L12772.0864079 7210.21471765L12776.6731763 7218.70597496L12781.0288352 7227.31871525L12785.0941891 7236.07279228L12788.7921417 7244.98671654L12792.0262033 7254.07956247L12794.6765193 7263.35975116L12796.6049435 7272.81436747L12797.6739191 7282.40429309L12797.7779293 7292.05061181L12796.8825194 7301.65639002L12795.0417673 7311.12689641L12792.3804361 7320.40207123L12789.0550336 7329.46147332L12785.2181723 7338.31740975L12781.0 7347.0L12776.3334462 7355.68850967L12771.1813995 7364.09865106L12765.5844533 7372.21961033L12759.5841364 7380.04807488L12753.2220644 7387.58561639L12746.5383937 7394.83794545L12739.5682106 7401.81645124L12732.3444473 7408.53326646L12724.8976254 7415.00094694L12717.25302 7421.23434698L12709.4338152 7427.24743573L12701.4593302 7433.05465246L12693.348718 7438.66819729L12685.1168646 7444.10111936L12676.775341 7449.36649693L12668.3375329 7454.47436554L12659.8116992 7459.43624779L12651.2075259 7464.2612666L12642.5334325 7468.95799085L12633.7954681 7473.5350941L12625.0 7478.0L12616.0676902 7482.4027681L12607.1788533 7486.89359117L12598.3231745 7491.4466161L12589.4922396 7496.04945823L12580.6830891 7500.69372701L12571.8941863 7505.37401875L12563.1230042 7510.08778767L12554.3682446 7514.83344725L12545.6301928 7519.60977182L12536.9090123 7524.416623L12528.2046001 7529.25498082L12519.5189425 7534.12567968L12510.8531085 7539.03123626L12502.2097881 7543.97474082L12493.5901923 7548.96218197L12485.0 7554.0L12476.5283836 7558.88566267L12468.0091883 7563.68857295L12459.445177 7568.40956532L12450.8371832 7573.05033877L12442.186546 7577.61209145L12433.4942869 7582.09598896L12424.7633254 7586.50205666L12415.9947632 7590.83111111L12407.1884528 7595.08439964L12398.3453329 7599.26245443L12389.4677197 7603.36502581L12380.5563272 7607.3924905L12371.6111512 7611.34538966L12362.6323552 7615.22401972L12353.6225791 7619.02748186L12344.5806164 7622.75638154L12335.5087629 7626.40971909L12326.4061861 7629.98763323L12317.2739974 7633.48932895L12308.1128519 7636.91405437L12298.9231221 7640.26101294L12289.7052164 7643.5292336L12280.459589 7646.71756266L12271.1857234 7649.82499392L12261.8863409 7652.84926321L12252.5596218 7655.78941103L12243.2055257 7658.64364465L12233.8256743 7661.40944441L12224.4190261 7664.08483827L12214.9855111 7666.66726297L12205.5271728 7669.15329345L12196.04416 7671.53971548L12186.5337765 7673.82360566L12177.0 7676.0L12167.362119 7678.1704702L12157.7341388 7680.38639312L12148.1174906 7682.65530459L12138.5160812 7684.98537288L12128.9315631 7687.38672907L12119.3689494 7689.87033515L12109.8325559 7692.44923773L12100.3267969 7695.13871328L12090.8580632 7697.95608759L12081.4334617 7700.92142749L12072.0645365 7704.05664969L12062.7634512 7707.38686394L12053.5451811 7710.93970923L12044.4276037 7714.74499832L12035.4337232 7718.83287551L12026.5882866 7723.23360683L12017.9202133 7727.97396013L12009.4591116 7733.07541823L12001.2354163 7738.54987072L11993.2743102 7744.39921354L11985.5946352 7750.61325068L11978.2060085 7757.17077651L11971.1076691 7764.04208467L11964.2897111 7771.19158887L11957.7334066 7778.58275796L11951.4165063 7786.17779928L11945.3107679 7793.94542333L11939.390542 7801.85405381L11933.6281784 7809.87984725L11928.0 7818.0L11922.5899979 7826.32174037L11917.4366862 7834.80506166L11912.467895 7843.39701365L11907.6472985 7852.07316336L11902.9557805 7860.81948726L11898.3832613 7869.62821342L11893.925302 7878.49607063L11889.5830497 7887.42072993L11885.3616255 7896.40289083L11881.2706609 7905.4462488L11877.3273725 7914.55398756L11873.5569844 7923.73470212L11870.0 7933.0L11866.3112518 7942.26386401L11862.5094162 7951.48180231L11858.5791487 7960.64499988L11854.5033765 7969.74592619L11850.266735 7978.77162411L11845.8525642 7987.71197621L11841.2457827 7996.55512804L11836.4341799 8005.287344L11831.4068894 8013.89797063L11826.1582739 8022.37442875L11820.6844838 8030.70953114L11814.9888234 8038.89386736L11809.0776655 8046.92260686L11802.9601378 8054.79501414L11796.6478863 8062.51350498L11790.156259 8070.08097222L11783.4993781 8077.50523482L11776.6937228 8084.79339066L11769.7550334 8091.95423166L11762.6972675 8098.99822617L11755.5340377 8105.9353002L11748.2791835 8112.77394843L11740.9421595 8119.5252955L11733.533002 8126.19820161L11726.0612017 8132.80040206L11718.5334404 8139.34053072L11710.9581017 8145.82424559L11703.3402536 8152.25870115L11695.6861964 8158.64875022L11688.0 8165.0L11680.4009176 8171.45453152L11672.8439671 8177.95873252L11665.3243408 8184.50532846L11657.8376615 8191.08986231L11650.3812845 8197.70856306L11642.9524592 8204.35934848L11635.5506685 8211.03934102L11628.1746052 8217.74731142L11620.8229909 8224.48280086L11613.4957965 8231.24489322L11606.1934993 8238.0328145L11598.9155852 8244.84730609L11591.6629159 8251.68843405L11584.4368692 8258.55640947L11577.2373494 8265.45357076L11570.0664778 8272.38099995L11562.9269269 8279.3402721L11555.8214015 8286.3342492L11548.7538285 8293.36635449L11541.7293963 8300.44118921L11534.7548627 8307.56530503L11527.8405558 8314.74699024L11521.0 8322.0L11514.353227 8329.08495113L11507.6460875 8336.11269912L11500.8783114 8343.08138248L11494.048438 8349.99033916L11487.1566402 8356.83721962L11480.2023139 8363.62046489L11473.184428 8370.33890462L11466.1033827 8376.9899913L11458.9589309 8383.57182576L11451.7492485 8390.0839313L11444.4757239 8396.52291507L11437.1364069 8402.88838143L11429.73225 8409.17738675L11422.2625139 8415.3884801L11414.7271473 8421.51963723L11407.1255654 8427.56928371L11399.4581289 8433.53511096L11391.7246518 8439.41528156L11383.9257132 8445.20741912L11376.0616408 8450.90940391L11368.131149 8456.52030266L11360.1349301 8462.03778142L11352.0741875 8467.45925221L11343.9485715 8472.78325222L11335.7593344 8478.0073235L11327.5051205 8483.13072831L11319.187367 8488.15101146L11310.8074878 8493.06586725L11302.3668349 8497.873158L11293.8634867 8502.57265577L11285.3009146 8507.16119512L11276.678886 8511.63777142L11268.0 8516.0L11260.000746 8519.85678316L11252.0002919 8523.71414496L11244.0006566 8527.57111202L11236.0000613 8531.42854188L11227.9997632 8535.28582846L11220.0001181 8539.14280018L11212.0 8543.0L11210.624924 8552.50052492L11209.2500056 8561.99996144L11207.8750163 8571.49988741L11206.5001069 8580.99926117L11205.1251746 8590.49879398L11203.7500605 8599.99958209L11202.3750058 8609.49996014L11201.0 8619.0L11199.6760477 8628.60596681L11198.4191333 8638.22080706L11197.2065664 8647.84104371L11196.0269602 8657.46506432L11194.8734893 8667.09347042L11193.7421096 8676.7240152L11192.6299885 8686.35586957L11191.5348574 8695.99082274L11190.4555153 8705.62633163L11189.3907247 8715.26369007L11188.3396542 8724.90322579L11187.3017984 8734.54432874L11186.2767967 8744.18666623L11185.2644561 8753.82968761L11184.2644777 8763.47506279L11183.2769519 8773.12182243L11182.3020107 8782.76956727L11181.3398085 8792.4186609L11180.3906248 8802.06923327L11179.4549796 8811.72000217L11178.533151 8821.37332956L11177.6259677 8831.0271369L11176.7339693 8840.68387007L11175.8582503 8850.34176642L11175.0 8860.0L11174.167706 8869.93165202L11173.3098838 8879.86048573L11172.4273552 8889.78686319L11171.5207857 8899.71186268L11170.5908965 8909.63503251L11169.6382843 8919.55650156L11168.6636357 8929.47480968L11167.6672335 8939.39197839L11166.6497818 8949.30523129L11165.6114019 8959.21699378L11164.5524617 8969.12671847L11163.473184 8979.03475254L11162.3738657 8988.94030173L11161.2546918 8998.84317528L11160.1157559 9008.74355509L11158.9570837 9018.64176101L11157.7786591 9028.53801413L11156.5804526 9038.43220027L11155.3624508 9048.32363608L11154.1245016 9058.21232438L11152.8661784 9068.09991895L11151.5875745 9077.98346565L11150.2880689 9087.8650317L11148.9673272 9097.74382001L11147.6250118 9107.61844202L11146.2602164 9117.49093738L11144.8722933 9127.36055418L11143.4604966 9137.22631771L11142.0237218 9147.08866735L11140.5607825 9156.9472839L11139.0704274 9166.80079336L11137.5506522 9176.65096665L11135.9996999 9186.4957068L11134.4149579 9196.33567297L11132.793549 9206.16970749L11131.1318725 9215.99672363L11129.4254798 9225.81500799L11127.6681044 9235.62562448L11125.8522918 9245.4255745L11123.9676942 9255.21236588L11121.9997316 9264.98253415L11119.9268835 9274.73018566L11117.7140364 9284.44843057L11115.2993289 9294.11837303L11112.5475084 9303.69651903L11109.0 9313.0L11104.277778 9321.31365759L11099.1881923 9329.40669016L11093.7714812 9337.28519124L11088.0391776 9344.93654144L11081.971015 9352.32342748L11075.4962098 9359.35543518L11068.4176201 9365.77465674L11060.0 9370.0L11053.6743544 9362.71512376L11048.4876054 9354.41527694L11043.5597873 9345.95747588L11038.770593 9337.42164861L11034.071619 9328.83500045L11029.438241 9320.21154992L11024.8567327 9311.56118192L11020.3170704 9302.88819926L11015.8134938 9294.19776524L11011.3406266 9285.49125491L11006.8953292 9276.77135826L11002.4741041 9268.03796025L10998.0758469 9259.29414417L10993.6979377 9250.53885522L10989.3392948 9241.77321173L10985.0 9233.0L10985.0 9233.0" />
  </g>
</svg>
