  0
SECTION
  2
HEADER
  9
$ACADVER
  1
AC1014
  9
$HANDSEED
  5
FFFF
  9
$MEASUREMENT
 70
     1
  0
ENDSEC
  0
SECTION
  2
TABLES
  0
TABLE
  2
VPORT
  5
8
330
0
100
AcDbSymbolTable
 70
     4
  0
VPORT
  5
2E
330
8
100
AcDbSymbolTableRecord
100
AcDbViewportTableRecord
  2
*ACTIVE
 70
     0
 10
0.0
 20
0.0
 11
1.0
 21
1.0
 12
210.0
 22
148.5
 13
0.0
 23
0.0
 14
10.0
 24
10.0
 15
10.0
 25
10.0
 16
0.0
 26
0.0
 36
1.0
 17
0.0
 27
0.0
 37
0.0
 40
341.0
 41
1.24
 42
50.0
 43
0.0
 44
0.0
 50
0.0
 51
0.0
 71
     0
 72
   100
 73
     1
 74
     3
 75
     0
 76
     0
 77
     0
 78
     0
  0
ENDTAB
  0
TABLE
  2
LTYPE
  5
5
330
0
100
AcDbSymbolTable
 70
     1
  0
LTYPE
  5
14
330
5
100
AcDbSymbolTableRecord
100
AcDbLinetypeTableRecord
  2
BYBLOCK
 70
     0
  3

 72
    65
 73
     0
 40
0.0
  0
LTYPE
  5
15
330
5
100
AcDbSymbolTableRecord
100
AcDbLinetypeTableRecord
  2
BYLAYER
 70
     0
  3

 72
    65
 73
     0
 40
0.0
  0
LTYPE
  5
16
330
5
100
AcDbSymbolTableRecord
100
AcDbLinetypeTableRecord
  2
CONTINUOUS
 70
     0
  3
Solid line
 72
    65
 73
     0
 40
0.0
  0
ENDTAB
  0
TABLE
  2
LAYER
  5
2
100
AcDbSymbolTable
 70
1
  0
LAYER
  5
50
100
AcDbSymbolTableRecord
100
AcDbLayerTableRecord
  2
0
 70
0
  6
CONTINUOUS
  0
ENDTAB
  0
TABLE
  2
STYLE
  5
3
330
0
100
AcDbSymbolTable
 70
     1
  0
STYLE
  5
11
330
3
100
AcDbSymbolTableRecord
100
AcDbTextStyleTableRecord
  2
STANDARD
 70
     0
 40
0.0
 41
1.0
 50
0.0
 71
     0
 42
2.5
  3
txt
  4

  0
ENDTAB
  0
TABLE
  2
VIEW
  5
6
330
0
100
AcDbSymbolTable
 70
     0
  0
ENDTAB
  0
TABLE
  2
UCS
  5
7
330
0
100
AcDbSymbolTable
 70
     0
  0
ENDTAB
  0
TABLE
  2
APPID
  5
9
330
0
100
AcDbSymbolTable
 70
     2
  0
APPID
  5
12
330
9
100
AcDbSymbolTableRecord
100
AcDbRegAppTableRecord
  2
ACAD
 70
     0
  0
ENDTAB
  0
TABLE
  2
DIMSTYLE
  5
A
330
0
100
AcDbSymbolTable
 70
     1
  0
DIMSTYLE
105
27
330
A
100
AcDbSymbolTableRecord
100
AcDbDimStyleTableRecord
  2
ISO-25
 70
     0
  3

  4

  5

  6

  7

 40
1.0
 41
2.5
 42
0.625
 43
3.75
 44
1.25
 45
0.0
 46
0.0
 47
0.0
 48
0.0
140
2.5
141
2.5
142
0.0
143
0.03937007874016
144
1.0
145
0.0
146
1.0
147
0.625
 71
     0
 72
     0
 73
     0
 74
     0
 75
     0
 76
     0
 77
     1
 78
     8
170
     0
171
     3
172
     1
173
     0
174
     0
175
     0
176
     0
177
     0
178
     0
270
     2
271
     2
272
     2
273
     2
274
     3
340
11
275
     0
280
     0
281
     0
282
     0
283
     0
284
     8
285
     0
286
     0
287
     3
288
     0
  0
ENDTAB
  0
TABLE
  2
BLOCK_RECORD
  5
1
330
0
100
AcDbSymbolTable
 70
     1
  0
BLOCK_RECORD
  5
1F
330
1
100
AcDbSymbolTableRecord
100
AcDbBlockTableRecord
  2
*MODEL_SPACE
  0
BLOCK_RECORD
  5
1B
330
1
100
AcDbSymbolTableRecord
100
AcDbBlockTableRecord
  2
*PAPER_SPACE
  0
ENDTAB
  0
ENDSEC
  0
SECTION
  2
BLOCKS
  0
BLOCK
  5
20
330
1F
100
AcDbEntity
  8
0
100
AcDbBlockBegin
  2
*MODEL_SPACE
 70
     0
 10
0.0
 20
0.0
 30
0.0
  3
*MODEL_SPACE
  1

  0
ENDBLK
  5
21
330
1F
100
AcDbEntity
  8
0
100
AcDbBlockEnd
  0
BLOCK
  5
1C
330
1B
100
AcDbEntity
 67
     1
  8
0
100
AcDbBlockBegin
  2
*PAPER_SPACE
  1

  0
ENDBLK
  5
1D
330
1B
100
AcDbEntity
 67
     1
  8
0
100
AcDbBlockEnd
  0
ENDSEC
  0
SECTION
  2
ENTITIES
  0
LWPOLYLINE
  5
100
100
AcDbEntity
  8
0
 62
7
100
AcDbPolyline
 90
1062
 70
1
 10
157.986877
 20
271.311734
 30
0.0
 10
157.602935
 20
270.521709
 30
0.0
 10
157.220164
 20
269.731184
 30
0.0
 10
156.838438
 20
268.940195
 30
0.0
 10
156.457618
 20
268.148702
 30
0.0
 10
156.077651
 20
267.356803
 30
0.0
 10
155.698484
 20
266.564553
 30
0.0
 10
155.320021
 20
265.771900
 30
0.0
 10
154.942255
 20
264.978956
 30
0.0
 10
154.565115
 20
264.185677
 30
0.0
 10
154.188586
 20
263.392125
 30
0.0
 10
153.812610
 20
262.598255
 30
0.0
 10
153.437203
 20
261.804171
 30
0.0
 10
153.062352
 20
261.009911
 30
0.0
 10
152.687983
 20
260.215366
 30
0.0
 10
152.314068
 20
259.420524
 30
0.0
 10
151.940631
 20
258.625476
 30
0.0
 10
151.567661
 20
257.830233
 30
0.0
 10
151.195127
 20
257.034756
 30
0.0
 10
150.823076
 20
256.239173
 30
0.0
 10
150.451470
 20
255.443424
 30
0.0
 10
150.080256
 20
254.647407
 30
0.0
 10
149.709460
 20
253.851194
 30
0.0
 10
149.339049
 20
253.054720
 30
0.0
 10
148.969104
 20
252.258169
 30
0.0
 10
148.599520
 20
251.461311
 30
0.0
 10
148.230400
 20
250.664371
 30
0.0
 10
147.861677
 20
249.867195
 30
0.0
 10
147.493375
 20
249.069825
 30
0.0
 10
147.125531
 20
248.272330
 30
0.0
 10
146.758100
 20
247.474592
 30
0.0
 10
146.391112
 20
246.676654
 30
0.0
 10
146.024572
 20
245.878497
 30
0.0
 10
145.658510
 20
245.080154
 30
0.0
 10
145.292907
 20
244.281541
 30
0.0
 10
144.927824
 20
243.482745
 30
0.0
 10
144.563267
 20
242.683719
 30
0.0
 10
144.199244
 20
241.884416
 30
0.0
 10
143.835791
 20
241.084832
 30
0.0
 10
143.472947
 20
240.284963
 30
0.0
 10
143.110760
 20
239.484796
 30
0.0
 10
142.749244
 20
238.684232
 30
0.0
 10
142.388546
 20
237.883434
 30
0.0
 10
142.028669
 20
237.082206
 30
0.0
 10
141.669699
 20
236.280491
 30
0.0
 10
141.311853
 20
235.478469
 30
0.0
 10
140.955164
 20
234.675809
 30
0.0
 10
140.509821
 20
233.917077
 30
0.0
 10
140.011502
 20
233.191261
 30
0.0
 10
139.493525
 20
232.479327
 30
0.0
 10
138.964374
 20
231.775770
 30
0.0
 10
138.427623
 20
231.077905
 30
0.0
 10
137.885316
 20
230.384375
 30
0.0
 10
137.338643
 20
229.694246
 30
0.0
 10
136.788474
 20
229.006986
 30
0.0
 10
136.235287
 20
228.322047
 30
0.0
 10
135.679577
 20
227.639203
 30
0.0
 10
135.121633
 20
226.958168
 30
0.0
 10
134.561705
 20
226.278754
 30
0.0
 10
134.000032
 20
225.600852
 30
0.0
 10
133.436657
 20
224.924198
 30
0.0
 10
132.871796
 20
224.248787
 30
0.0
 10
132.305602
 20
223.574587
 30
0.0
 10
131.738070
 20
222.901407
 30
0.0
 10
131.169355
 20
222.229276
 30
0.0
 10
130.599509
 20
221.558126
 30
0.0
 10
130.028584
 20
220.887904
 30
0.0
 10
129.456645
 20
220.218591
 30
0.0
 10
128.883661
 20
219.550065
 30
0.0
 10
128.309784
 20
218.882432
 30
0.0
 10
127.734971
 20
218.215581
 30
0.0
 10
127.159269
 20
217.549514
 30
0.0
 10
126.582706
 20
216.884214
 30
0.0
 10
126.005193
 20
216.219543
 30
0.0
 10
125.426903
 20
215.555665
 30
0.0
 10
124.847824
 20
214.892540
 30
0.0
 10
124.267921
 20
214.230103
 30
0.0
 10
123.687170
 20
213.568310
 30
0.0
 10
123.105700
 20
212.907293
 30
0.0
 10
122.523431
 20
212.246952
 30
0.0
 10
121.940354
 20
211.587267
 30
0.0
 10
121.356493
 20
210.928268
 30
0.0
 10
120.771824
 20
210.269925
 30
0.0
 10
120.186379
 20
209.612280
 30
0.0
 10
119.600143
 20
208.955321
 30
0.0
 10
119.013146
 20
208.299095
 30
0.0
 10
118.425395
 20
207.643621
 30
0.0
 10
117.836771
 20
206.988786
 30
0.0
 10
117.247406
 20
206.334757
 30
0.0
 10
116.657228
 20
205.681477
 30
0.0
 10
116.066177
 20
205.028908
 30
0.0
 10
115.474307
 20
204.377141
 30
0.0
 10
114.881555
 20
203.726143
 30
0.0
 10
114.287895
 20
203.075925
 30
0.0
 10
113.693386
 20
202.426597
 30
0.0
 10
113.097895
 20
201.778063
 30
0.0
 10
112.501427
 20
201.130382
 30
0.0
 10
111.903989
 20
200.483625
 30
0.0
 10
111.305597
 20
199.837873
 30
0.0
 10
110.706132
 20
199.193073
 30
0.0
 10
110.108149
 20
198.557261
 30
0.0
 10
109.508766
 20
197.922816
 30
0.0
 10
108.907960
 20
197.289640
 30
0.0
 10
108.305783
 20
196.657723
 30
0.0
 10
107.702364
 20
196.027139
 30
0.0
 10
107.097637
 20
195.397763
 30
0.0
 10
106.491618
 20
194.769563
 30
0.0
 10
105.884403
 20
194.142594
 30
0.0
 10
105.275908
 20
193.516725
 30
0.0
 10
104.666264
 20
192.892056
 30
0.0
 10
104.055490
 20
192.268571
 30
0.0
 10
103.443504
 20
191.646157
 30
0.0
 10
102.830376
 20
191.024860
 30
0.0
 10
102.216083
 20
190.404632
 30
0.0
 10
101.600750
 20
189.785578
 30
0.0
 10
100.984296
 20
189.167600
 30
0.0
 10
100.366795
 20
188.550757
 30
0.0
 10
99.748132
 20
187.934923
 30
0.0
 10
99.128464
 20
187.320244
 30
0.0
 10
98.507657
 20
186.706582
 30
0.0
 10
97.885853
 20
186.094073
 30
0.0
 10
97.262924
 20
185.482588
 30
0.0
 10
96.638915
 20
184.872175
 30
0.0
 10
96.013932
 20
184.262941
 30
0.0
 10
95.387853
 20
183.654772
 30
0.0
 10
94.760739
 20
183.047737
 30
0.0
 10
94.132453
 20
182.441717
 30
0.0
 10
93.503146
 20
181.836871
 30
0.0
 10
92.872792
 20
181.233192
 30
0.0
 10
92.241313
 20
180.630625
 30
0.0
 10
91.608761
 20
180.029244
 30
0.0
 10
90.975083
 20
179.429025
 30
0.0
 10
90.340230
 20
178.829951
 30
0.0
 10
89.704251
 20
178.232104
 30
0.0
 10
89.067167
 20
177.635539
 30
0.0
 10
88.428859
 20
177.040187
 30
0.0
 10
87.789331
 20
176.446098
 30
0.0
 10
87.148600
 20
175.853337
 30
0.0
 10
86.506619
 20
175.261917
 30
0.0
 10
85.863348
 20
174.671861
 30
0.0
 10
85.218817
 20
174.083263
 30
0.0
 10
84.572879
 20
173.496063
 30
0.0
 10
83.925646
 20
172.910441
 30
0.0
 10
83.276985
 20
172.326364
 30
0.0
 10
82.626900
 20
171.743932
 30
0.0
 10
81.975276
 20
171.163147
 30
0.0
 10
81.322141
 20
170.584150
 30
0.0
 10
80.667288
 20
170.006885
 30
0.0
 10
80.010881
 20
169.431639
 30
0.0
 10
79.352702
 20
168.858377
 30
0.0
 10
78.692687
 20
168.287214
 30
0.0
 10
78.030697
 20
167.718226
 30
0.0
 10
77.366705
 20
167.151606
 30
0.0
 10
76.700635
 20
166.587532
 30
0.0
 10
76.032219
 20
166.026050
 30
0.0
 10
75.361477
 20
165.467489
 30
0.0
 10
74.688158
 20
164.911994
 30
0.0
 10
74.012164
 20
164.359890
 30
0.0
 10
73.333170
 20
163.811385
 30
0.0
 10
72.650897
 20
163.266803
 30
0.0
 10
71.974181
 20
162.724813
 30
0.0
 10
71.300613
 20
162.179133
 30
0.0
 10
70.631192
 20
161.628210
 30
0.0
 10
69.967470
 20
161.070370
 30
0.0
 10
69.311387
 20
160.503662
 30
0.0
 10
68.665066
 20
159.925747
 30
0.0
 10
68.031157
 20
159.334441
 30
0.0
 10
67.412121
 20
158.727528
 30
0.0
 10
66.810289
 20
158.103460
 30
0.0
 10
66.227426
 20
157.461668
 30
0.0
 10
65.664274
 20
156.802584
 30
0.0
 10
65.120448
 20
156.127544
 30
0.0
 10
64.594495
 20
155.438367
 30
0.0
 10
64.084444
 20
154.737277
 30
0.0
 10
63.588071
 20
154.026512
 30
0.0
 10
63.103062
 20
153.307953
 30
0.0
 10
62.627342
 20
152.583266
 30
0.0
 10
62.159080
 20
151.853777
 30
0.0
 10
61.696680
 20
151.120463
 30
0.0
 10
61.238942
 20
150.384274
 30
0.0
 10
60.784788
 20
149.645798
 30
0.0
 10
60.333422
 20
148.905614
 30
0.0
 10
59.884210
 20
148.164197
 30
0.0
 10
59.436590
 20
147.421828
 30
0.0
 10
58.990044
 20
146.678624
 30
0.0
 10
58.544810
 20
145.923776
 30
0.0
 10
58.097877
 20
145.169850
 30
0.0
 10
57.649401
 20
144.416754
 30
0.0
 10
57.199617
 20
143.664613
 30
0.0
 10
56.748466
 20
142.913119
 30
0.0
 10
56.296166
 20
142.162475
 30
0.0
 10
55.842670
 20
141.412484
 30
0.0
 10
55.388072
 20
140.663213
 30
0.0
 10
54.932343
 20
139.914557
 30
0.0
 10
54.475527
 20
139.166558
 30
0.0
 10
54.017621
 20
138.419203
 30
0.0
 10
53.558643
 20
137.672536
 30
0.0
 10
53.098577
 20
136.926572
 30
0.0
 10
52.637324
 20
136.181221
 30
0.0
 10
52.174941
 20
135.436667
 30
0.0
 10
51.711366
 20
134.692942
 30
0.0
 10
51.246467
 20
133.950004
 30
0.0
 10
50.780110
 20
133.207861
 30
0.0
 10
50.312257
 20
132.466735
 30
0.0
 10
49.842744
 20
131.726740
 30
0.0
 10
49.371284
 20
130.987908
 30
0.0
 10
48.897612
 20
130.250486
 30
0.0
 10
48.421361
 20
129.514816
 30
0.0
 10
47.941802
 20
128.781096
 30
0.0
 10
47.458155
 20
128.050187
 30
0.0
 10
46.962616
 20
127.321280
 30
0.0
 10
46.460384
 20
126.597050
 30
0.0
 10
45.952403
 20
125.876761
 30
0.0
 10
45.439484
 20
125.159982
 30
0.0
 10
44.922238
 20
124.446345
 30
0.0
 10
44.401079
 20
123.735454
 30
0.0
 10
43.876448
 20
123.027133
 30
0.0
 10
43.348715
 20
122.321242
 30
0.0
 10
42.818047
 20
121.617478
 30
0.0
 10
42.284753
 20
120.915807
 30
0.0
 10
41.748923
 20
120.215975
 30
0.0
 10
41.210758
 20
119.517926
 30
0.0
 10
40.670389
 20
118.821563
 30
0.0
 10
40.128001
 20
118.126886
 30
0.0
 10
39.583643
 20
117.433760
 30
0.0
 10
39.037350
 20
116.742054
 30
0.0
 10
38.489244
 20
116.051773
 30
0.0
 10
37.939449
 20
115.362942
 30
0.0
 10
37.387908
 20
114.675382
 30
0.0
 10
36.834778
 20
113.989189
 30
0.0
 10
36.280054
 20
113.304278
 30
0.0
 10
35.723774
 20
112.620625
 30
0.0
 10
35.166018
 20
111.938274
 30
0.0
 10
34.606662
 20
111.257026
 30
0.0
 10
34.045905
 20
110.577091
 30
0.0
 10
33.483680
 20
109.898360
 30
0.0
 10
32.920008
 20
109.220842
 30
0.0
 10
32.354848
 20
108.544483
 30
0.0
 10
31.788271
 20
107.869371
 30
0.0
 10
31.220170
 20
107.195388
 30
0.0
 10
30.650657
 20
106.522690
 30
0.0
 10
30.079642
 20
105.851202
 30
0.0
 10
29.507157
 20
105.181000
 30
0.0
 10
28.933234
 20
104.512173
 30
0.0
 10
28.357756
 20
103.844648
 30
0.0
 10
27.780647
 20
103.178409
 30
0.0
 10
27.201913
 20
102.513552
 30
0.0
 10
26.621580
 20
101.850211
 30
0.0
 10
26.039551
 20
101.188392
 30
0.0
 10
25.455721
 20
100.528113
 30
0.0
 10
24.869998
 20
99.869432
 30
0.0
 10
24.282355
 20
99.212500
 30
0.0
 10
23.692644
 20
98.557368
 30
0.0
 10
23.100862
 20
97.904277
 30
0.0
 10
22.506806
 20
97.253292
 30
0.0
 10
21.910188
 20
96.604437
 30
0.0
 10
21.310941
 20
95.958038
 30
0.0
 10
20.708838
 20
95.314328
 30
0.0
 10
20.103645
 20
94.673628
 30
0.0
 10
19.494970
 20
94.036223
 30
0.0
 10
18.882366
 20
93.402511
 30
0.0
 10
18.265327
 20
92.773063
 30
0.0
 10
17.643215
 20
92.148637
 30
0.0
 10
17.015194
 20
91.530266
 30
0.0
 10
16.380023
 20
90.919304
 30
0.0
 10
15.735897
 20
90.317739
 30
0.0
 10
15.080158
 20
89.728832
 30
0.0
 10
14.422590
 20
89.134098
 30
0.0
 10
13.771828
 20
88.531850
 30
0.0
 10
13.127976
 20
87.922137
 30
0.0
 10
12.491202
 20
87.305039
 30
0.0
 10
11.861684
 20
86.680621
 30
0.0
 10
11.239515
 20
86.048828
 30
0.0
 10
10.624896
 20
85.409679
 30
0.0
 10
10.018046
 20
84.763172
 30
0.0
 10
9.419202
 20
84.109286
 30
0.0
 10
8.828584
 20
83.447928
 30
0.0
 10
8.246490
 20
82.779040
 30
0.0
 10
7.673284
 20
82.102578
 30
0.0
 10
7.109247
 20
81.418333
 30
0.0
 10
6.554915
 20
80.726324
 30
0.0
 10
6.010746
 20
80.026388
 30
0.0
 10
5.477179
 20
79.318221
 30
0.0
 10
4.954937
 20
78.601771
 30
0.0
 10
4.444586
 20
77.876615
 30
0.0
 10
3.947086
 20
77.142703
 30
0.0
 10
3.463310
 20
76.399646
 30
0.0
 10
2.994351
 20
75.647111
 30
0.0
 10
2.541518
 20
74.884770
 30
0.0
 10
2.106364
 20
74.112280
 30
0.0
 10
1.690692
 20
73.329195
 30
0.0
 10
1.296635
 20
72.534962
 30
0.0
 10
0.926845
 20
71.729087
 30
0.0
 10
0.584608
 20
70.911157
 30
0.0
 10
0.273950
 20
70.080699
 30
0.0
 10
-0.000005
 20
69.237552
 30
0.0
 10
0.343299
 20
68.422537
 30
0.0
 10
0.732415
 20
67.628277
 30
0.0
 10
1.150445
 20
66.848730
 30
0.0
 10
1.589414
 20
66.080783
 30
0.0
 10
2.044774
 20
65.322562
 30
0.0
 10
2.513728
 20
64.572673
 30
0.0
 10
2.994388
 20
63.830095
 30
0.0
 10
3.485292
 20
63.094233
 30
0.0
 10
3.985387
 20
62.364554
 30
0.0
 10
4.493786
 20
61.640737
 30
0.0
 10
5.009918
 20
60.922330
 30
0.0
 10
5.533211
 20
60.209114
 30
0.0
 10
6.063128
 20
59.500992
 30
0.0
 10
6.599383
 20
58.797660
 30
0.0
 10
7.141706
 20
58.098896
 30
0.0
 10
7.689778
 20
57.404628
 30
0.0
 10
8.243408
 20
56.714681
 30
0.0
 10
8.802260
 20
56.029114
 30
0.0
 10
9.366255
 20
55.347710
 30
0.0
 10
9.935176
 20
54.670459
 30
0.0
 10
10.508900
 20
53.997265
 30
0.0
 10
11.087256
 20
53.328114
 30
0.0
 10
11.670215
 20
52.662854
 30
0.0
 10
12.257606
 20
52.001512
 30
0.0
 10
12.849381
 20
51.343993
 30
0.0
 10
13.445327
 20
50.690398
 30
0.0
 10
14.045416
 20
50.040635
 30
0.0
 10
14.649660
 20
49.394583
 30
0.0
 10
15.257810
 20
48.752407
 30
0.0
 10
15.869945
 20
48.113936
 30
0.0
 10
16.486023
 20
47.479134
 30
0.0
 10
17.105872
 20
46.848105
 30
0.0
 10
17.729495
 20
46.220779
 30
0.0
 10
18.356759
 20
45.597227
 30
0.0
 10
18.987707
 20
44.977351
 30
0.0
 10
19.622241
 20
44.361198
 30
0.0
 10
20.260439
 20
43.748648
 30
0.0
 10
20.902066
 20
43.139883
 30
0.0
 10
21.547229
 20
42.534765
 30
0.0
 10
22.195882
 20
41.933303
 30
0.0
 10
22.847905
 20
41.335578
 30
0.0
 10
23.503271
 20
40.741584
 30
0.0
 10
24.162047
 20
40.151237
 30
0.0
 10
24.824055
 20
39.564671
 30
0.0
 10
25.489379
 20
38.981793
 30
0.0
 10
26.157938
 20
38.402653
 30
0.0
 10
26.829659
 20
37.827296
 30
0.0
 10
27.504649
 20
37.255618
 30
0.0
 10
28.182757
 20
36.687732
 30
0.0
 10
28.864014
 20
36.123600
 30
0.0
 10
29.548456
 20
35.563183
 30
0.0
 10
30.235947
 20
35.006583
 30
0.0
 10
30.926532
 20
34.453758
 30
0.0
 10
31.620080
 20
33.904802
 30
0.0
 10
32.316644
 20
33.359669
 30
0.0
 10
33.016190
 20
32.818379
 30
0.0
 10
33.718778
 20
32.280884
 30
0.0
 10
34.424200
 20
31.747339
 30
0.0
 10
35.132521
 20
31.217692
 30
0.0
 10
35.843808
 20
30.691890
 30
0.0
 10
36.557951
 20
30.170016
 30
0.0
 10
37.275023
 20
29.652016
 30
0.0
 10
37.994915
 20
29.137970
 30
0.0
 10
38.717523
 20
28.627953
 30
0.0
 10
39.442923
 20
28.121911
 30
0.0
 10
40.171197
 20
27.619789
 30
0.0
 10
40.902150
 20
27.121726
 30
0.0
 10
41.635866
 20
26.627665
 30
0.0
 10
42.372337
 20
26.137618
 30
0.0
 10
43.111465
 20
25.651653
 30
0.0
 10
43.853150
 20
25.169837
 30
0.0
 10
44.597481
 20
24.692116
 30
0.0
 10
45.344546
 20
24.218439
 30
0.0
 10
46.094248
 20
23.748873
 30
0.0
 10
46.846492
 20
23.283482
 30
0.0
 10
47.601276
 20
22.822273
 30
0.0
 10
48.358598
 20
22.365251
 30
0.0
 10
49.118455
 20
21.912423
 30
0.0
 10
49.880846
 20
21.463796
 30
0.0
 10
50.645677
 20
21.019431
 30
0.0
 10
51.412948
 20
20.579332
 30
0.0
 10
52.182656
 20
20.143507
 30
0.0
 10
52.954800
 20
19.711961
 30
0.0
 10
53.729379
 20
19.284703
 30
0.0
 10
54.506300
 20
18.861790
 30
0.0
 10
55.285467
 20
18.443276
 30
0.0
 10
56.066973
 20
18.029119
 30
0.0
 10
56.850905
 20
17.619278
 30
0.0
 10
57.636986
 20
17.213904
 30
0.0
 10
58.425396
 20
16.812908
 30
0.0
 10
59.216040
 20
16.416346
 30
0.0
 10
60.008914
 20
16.024226
 30
0.0
 10
60.803921
 20
15.636599
 30
0.0
 10
61.601148
 20
15.253429
 30
0.0
 10
62.400497
 20
14.874768
 30
0.0
 10
63.202052
 20
14.500582
 30
0.0
 10
64.005715
 20
14.130923
 30
0.0
 10
64.811386
 20
13.765841
 30
0.0
 10
65.619148
 20
13.405303
 30
0.0
 10
66.428899
 20
13.049358
 30
0.0
 10
67.240717
 20
12.697977
 30
0.0
 10
68.054502
 20
12.351209
 30
0.0
 10
68.870151
 20
12.009099
 30
0.0
 10
69.687739
 20
11.671620
 30
0.0
 10
70.507250
 20
11.338781
 30
0.0
 10
71.328579
 20
11.010629
 30
0.0
 10
72.151884
 20
10.687104
 30
0.0
 10
72.976882
 20
10.368320
 30
0.0
 10
73.803816
 20
10.054186
 30
0.0
 10
74.632402
 20
9.744813
 30
0.0
 10
75.462877
 20
9.440115
 30
0.0
 10
76.294956
 20
9.140197
 30
0.0
 10
77.128700
 20
8.845040
 30
0.0
 10
77.964167
 20
8.554623
 30
0.0
 10
78.801242
 20
8.268989
 30
0.0
 10
79.639979
 20
7.988119
 30
0.0
 10
80.480261
 20
7.712055
 30
0.0
 10
81.322136
 20
7.440780
 30
0.0
 10
82.165652
 20
7.174281
 30
0.0
 10
83.010521
 20
6.912649
 30
0.0
 10
83.856952
 20
6.655816
 30
0.0
 10
84.704820
 20
6.403822
 30
0.0
 10
85.554163
 20
6.156655
 30
0.0
 10
86.404854
 20
5.914350
 30
0.0
 10
87.256925
 20
5.676896
 30
0.0
 10
88.110247
 20
5.444327
 30
0.0
 10
88.965008
 20
5.216591
 30
0.0
 10
89.821072
 20
4.993721
 30
0.0
 10
90.678304
 20
4.775750
 30
0.0
 10
91.536724
 20
4.562670
 30
0.0
 10
92.396349
 20
4.354471
 30
0.0
 10
93.257194
 20
4.151148
 30
0.0
 10
94.119113
 20
3.952731
 30
0.0
 10
94.982269
 20
3.759178
 30
0.0
 10
95.846511
 20
3.570521
 30
0.0
 10
96.711689
 20
3.386786
 30
0.0
 10
97.577954
 20
3.207936
 30
0.0
 10
98.445150
 20
3.033997
 30
0.0
 10
99.313417
 20
2.864935
 30
0.0
 10
100.182594
 20
2.700778
 30
0.0
 10
101.052664
 20
2.541521
 30
0.0
 10
101.923609
 20
2.387160
 30
0.0
 10
102.795405
 20
2.237694
 30
0.0
 10
103.668024
 20
2.093120
 30
0.0
 10
104.541435
 20
1.953434
 30
0.0
 10
105.415601
 20
1.818636
 30
0.0
 10
106.290624
 20
1.688702
 30
0.0
 10
107.166318
 20
1.563652
 30
0.0
 10
108.042633
 20
1.443484
 30
0.0
 10
108.919656
 20
1.328176
 30
0.0
 10
109.797327
 20
1.217729
 30
0.0
 10
110.675582
 20
1.112140
 30
0.0
 10
111.554353
 20
1.011407
 30
0.0
 10
112.433702
 20
0.915513
 30
0.0
 10
113.313549
 20
0.824456
 30
0.0
 10
114.193940
 20
0.738221
 30
0.0
 10
115.074657
 20
0.656819
 30
0.0
 10
115.955862
 20
0.580221
 30
0.0
 10
116.837454
 20
0.508426
 30
0.0
 10
117.719451
 20
0.441421
 30
0.0
 10
118.601740
 20
0.379201
 30
0.0
 10
119.484447
 20
0.321746
 30
0.0
 10
120.367322
 20
0.269060
 30
0.0
 10
121.250596
 20
0.221115
 30
0.0
 10
122.134007
 20
0.177914
 30
0.0
 10
123.017762
 20
0.139432
 30
0.0
 10
123.901587
 20
0.105669
 30
0.0
 10
124.785668
 20
0.076602
 30
0.0
 10
125.669943
 20
0.052222
 30
0.0
 10
126.554233
 20
0.032519
 30
0.0
 10
127.438686
 20
0.017474
 30
0.0
 10
128.323102
 20
0.007076
 30
0.0
 10
129.207603
 20
0.001308
 30
0.0
 10
130.092081
 20
0.000156
 30
0.0
 10
130.976626
 20
0.003605
 30
0.0
 10
131.861105
 20
0.011638
 30
0.0
 10
132.745580
 20
0.024241
 30
0.0
 10
133.629893
 20
0.041396
 30
0.0
 10
134.514078
 20
0.063086
 30
0.0
 10
135.398151
 20
0.089295
 30
0.0
 10
136.282108
 20
0.120007
 30
0.0
 10
137.165927
 20
0.155205
 30
0.0
 10
138.049571
 20
0.194870
 30
0.0
 10
138.932981
 20
0.238984
 30
0.0
 10
139.816265
 20
0.287535
 30
0.0
 10
140.699143
 20
0.340490
 30
0.0
 10
141.581860
 20
0.397845
 30
0.0
 10
142.464271
 20
0.459576
 30
0.0
 10
143.346388
 20
0.525665
 30
0.0
 10
144.228195
 20
0.596093
 30
0.0
 10
145.109481
 20
0.670824
 30
0.0
 10
145.990511
 20
0.749862
 30
0.0
 10
146.871176
 20
0.833181
 30
0.0
 10
147.751345
 20
0.920749
 30
0.0
 10
148.631012
 20
1.012546
 30
0.0
 10
149.510288
 20
1.108564
 30
0.0
 10
150.389085
 20
1.208777
 30
0.0
 10
151.267427
 20
1.313167
 30
0.0
 10
152.145289
 20
1.421714
 30
0.0
 10
153.022601
 20
1.534390
 30
0.0
 10
153.899383
 20
1.651177
 30
0.0
 10
154.775600
 20
1.772052
 30
0.0
 10
155.651292
 20
1.897002
 30
0.0
 10
156.526431
 20
2.026004
 30
0.0
 10
157.400925
 20
2.159024
 30
0.0
 10
158.274742
 20
2.296038
 30
0.0
 10
159.147890
 20
2.437026
 30
0.0
 10
160.020412
 20
2.581977
 30
0.0
 10
160.892253
 20
2.730860
 30
0.0
 10
161.763489
 20
2.883670
 30
0.0
 10
162.634075
 20
3.040379
 30
0.0
 10
163.503858
 20
3.200940
 30
0.0
 10
164.372976
 20
3.365359
 30
0.0
 10
165.241414
 20
3.533613
 30
0.0
 10
166.109004
 20
3.705648
 30
0.0
 10
166.975889
 20
3.881475
 30
0.0
 10
167.841922
 20
4.061041
 30
0.0
 10
168.707195
 20
4.244346
 30
0.0
 10
169.571809
 20
4.431392
 30
0.0
 10
170.435593
 20
4.622123
 30
0.0
 10
171.298419
 20
4.816490
 30
0.0
 10
172.160446
 20
5.014507
 30
0.0
 10
173.021723
 20
5.216166
 30
0.0
 10
173.882144
 20
5.421422
 30
0.0
 10
174.741659
 20
5.630244
 30
0.0
 10
175.600289
 20
5.842616
 30
0.0
 10
176.457997
 20
6.058508
 30
0.0
 10
177.314888
 20
6.277927
 30
0.0
 10
178.170895
 20
6.500836
 30
0.0
 10
179.025994
 20
6.727209
 30
0.0
 10
179.880094
 20
6.957000
 30
0.0
 10
180.733383
 20
7.190241
 30
0.0
 10
181.585687
 20
7.426865
 30
0.0
 10
182.436973
 20
7.666841
 30
0.0
 10
183.287365
 20
7.910184
 30
0.0
 10
184.136822
 20
8.156863
 30
0.0
 10
184.985254
 20
8.406832
 30
0.0
 10
185.832711
 20
8.660085
 30
0.0
 10
186.679236
 20
8.916615
 30
0.0
 10
187.524866
 20
9.176414
 30
0.0
 10
188.369519
 20
9.439439
 30
0.0
 10
189.213119
 20
9.705644
 30
0.0
 10
190.055655
 20
9.975007
 30
0.0
 10
190.897115
 20
10.247504
 30
0.0
 10
190.867544
 20
11.109979
 30
0.0
 10
190.837977
 20
11.972368
 30
0.0
 10
190.808408
 20
12.834805
 30
0.0
 10
190.778839
 20
13.697229
 30
0.0
 10
190.749269
 20
14.559682
 30
0.0
 10
190.719699
 20
15.422150
 30
0.0
 10
190.690130
 20
16.284569
 30
0.0
 10
190.660561
 20
17.146996
 30
0.0
 10
190.630995
 20
18.009331
 30
0.0
 10
190.601429
 20
18.871681
 30
0.0
 10
190.571862
 20
19.734043
 30
0.0
 10
190.542290
 20
20.596558
 30
0.0
 10
190.512720
 20
21.459013
 30
0.0
 10
190.483152
 20
22.321421
 30
0.0
 10
190.453585
 20
23.183810
 30
0.0
 10
190.424014
 20
24.046271
 30
0.0
 10
190.394446
 20
24.908694
 30
0.0
 10
190.364874
 20
25.771201
 30
0.0
 10
190.719668
 20
26.531474
 30
0.0
 10
191.074516
 20
27.291862
 30
0.0
 10
191.429327
 20
28.052171
 30
0.0
 10
191.784181
 20
28.812572
 30
0.0
 10
192.139021
 20
29.572945
 30
0.0
 10
192.493833
 20
30.333255
 30
0.0
 10
192.848666
 20
31.093611
 30
0.0
 10
193.224899
 20
31.852224
 30
0.0
 10
193.611569
 20
32.605687
 30
0.0
 10
194.005677
 20
33.355247
 30
0.0
 10
194.405563
 20
34.101637
 30
0.0
 10
194.810321
 20
34.845520
 30
0.0
 10
195.219233
 20
35.587076
 30
0.0
 10
195.631891
 20
36.326545
 30
0.0
 10
196.047986
 20
37.064000
 30
0.0
 10
196.467440
 20
37.799664
 30
0.0
 10
196.890098
 20
38.533417
 30
0.0
 10
197.316036
 20
39.265345
 30
0.0
 10
197.745303
 20
39.995302
 30
0.0
 10
198.178110
 20
40.723186
 30
0.0
 10
198.614733
 20
41.448739
 30
0.0
 10
199.055737
 20
42.171799
 30
0.0
 10
199.501679
 20
42.891621
 30
0.0
 10
199.964916
 20
43.601262
 30
0.0
 10
200.428180
 20
44.310943
 30
0.0
 10
200.891436
 20
45.020611
 30
0.0
 10
201.354717
 20
45.730318
 30
0.0
 10
201.817909
 20
46.439889
 30
0.0
 10
202.281144
 20
47.149526
 30
0.0
 10
202.744409
 20
47.859207
 30
0.0
 10
203.207675
 20
48.568892
 30
0.0
 10
203.670900
 20
49.278513
 30
0.0
 10
204.491484
 20
49.278513
 30
0.0
 10
205.311973
 20
49.278513
 30
0.0
 10
206.132505
 20
49.278513
 30
0.0
 10
206.952989
 20
49.278513
 30
0.0
 10
207.773487
 20
49.278513
 30
0.0
 10
208.594094
 20
49.278513
 30
0.0
 10
209.414664
 20
49.278513
 30
0.0
 10
210.235206
 20
49.278513
 30
0.0
 10
211.084068
 20
49.287423
 30
0.0
 10
211.932662
 20
49.311799
 30
0.0
 10
212.780704
 20
49.349171
 30
0.0
 10
213.628241
 20
49.398017
 30
0.0
 10
214.475043
 20
49.457401
 30
0.0
 10
215.321114
 20
49.526831
 30
0.0
 10
216.166367
 20
49.606161
 30
0.0
 10
217.010497
 20
49.695553
 30
0.0
 10
217.853411
 20
49.795546
 30
0.0
 10
218.694893
 20
49.907111
 30
0.0
 10
219.534658
 20
50.031843
 30
0.0
 10
220.371770
 20
50.172227
 30
0.0
 10
221.205453
 20
50.332538
 30
0.0
 10
222.033216
 20
50.520409
 30
0.0
 10
222.897550
 20
50.704532
 30
0.0
 10
223.768817
 20
50.852998
 30
0.0
 10
224.643239
 20
50.981971
 30
0.0
 10
225.519375
 20
51.097963
 30
0.0
 10
226.396696
 20
51.204395
 30
0.0
 10
227.274865
 20
51.303306
 30
0.0
 10
228.153841
 20
51.396042
 30
0.0
 10
229.033375
 20
51.483506
 30
0.0
 10
229.913227
 20
51.566347
 30
0.0
 10
230.793592
 20
51.645078
 30
0.0
 10
231.674258
 20
51.720055
 30
0.0
 10
232.555214
 20
51.791562
 30
0.0
 10
233.436313
 20
51.859807
 30
0.0
 10
234.317742
 20
51.924974
 30
0.0
 10
235.199347
 20
51.987175
 30
0.0
 10
236.081226
 20
52.046510
 30
0.0
 10
236.963176
 20
52.103025
 30
0.0
 10
237.845330
 20
52.156763
 30
0.0
 10
238.727716
 20
52.207735
 30
0.0
 10
239.610232
 20
52.255921
 30
0.0
 10
240.492807
 20
52.301280
 30
0.0
 10
241.375604
 20
52.343757
 30
0.0
 10
242.258375
 20
52.383253
 30
0.0
 10
243.135193
 20
52.417691
 30
0.0
 10
244.011966
 20
52.453039
 30
0.0
 10
244.888694
 20
52.489395
 30
0.0
 10
245.765490
 20
52.526874
 30
0.0
 10
246.642235
 20
52.565595
 30
0.0
 10
247.518783
 20
52.605688
 30
0.0
 10
248.395305
 20
52.647313
 30
0.0
 10
249.271667
 20
52.690633
 30
0.0
 10
250.147952
 20
52.735843
 30
0.0
 10
251.024213
 20
52.783159
 30
0.0
 10
251.900277
 20
52.832812
 30
0.0
 10
252.776316
 20
52.885083
 30
0.0
 10
253.652022
 20
52.940257
 30
0.0
 10
254.527559
 20
52.998687
 30
0.0
 10
255.402877
 20
53.060761
 30
0.0
 10
256.277903
 20
53.126915
 30
0.0
 10
257.152551
 20
53.197643
 30
0.0
 10
258.026713
 20
53.273504
 30
0.0
 10
258.900506
 20
53.355155
 30
0.0
 10
259.773523
 20
53.443289
 30
0.0
 10
260.645883
 20
53.538750
 30
0.0
 10
261.517255
 20
53.642438
 30
0.0
 10
262.387479
 20
53.755389
 30
0.0
 10
263.256242
 20
53.878736
 30
0.0
 10
264.123302
 20
54.013743
 30
0.0
 10
264.988211
 20
54.161753
 30
0.0
 10
265.850560
 20
54.324202
 30
0.0
 10
266.709807
 20
54.502545
 30
0.0
 10
267.565178
 20
54.698167
 30
0.0
 10
268.416071
 20
54.912371
 30
0.0
 10
269.261791
 20
55.146215
 30
0.0
 10
270.101598
 20
55.400385
 30
0.0
 10
270.934995
 20
55.675159
 30
0.0
 10
271.761502
 20
55.970248
 30
0.0
 10
272.580772
 20
56.284782
 30
0.0
 10
273.392751
 20
56.617398
 30
0.0
 10
274.197798
 20
56.966402
 30
0.0
 10
274.996619
 20
57.329905
 30
0.0
 10
275.789561
 20
57.705663
 30
0.0
 10
276.567060
 20
58.075662
 30
0.0
 10
277.343993
 20
58.446834
 30
0.0
 10
278.120193
 20
58.819243
 30
0.0
 10
278.895807
 20
59.193178
 30
0.0
 10
279.670472
 20
59.568798
 30
0.0
 10
280.444138
 20
59.946606
 30
0.0
 10
281.216396
 20
60.327289
 30
0.0
 10
281.986614
 20
60.712230
 30
0.0
 10
282.753030
 20
61.104637
 30
0.0
 10
283.507056
 20
61.520057
 30
0.0
 10
284.246681
 20
61.931183
 30
0.0
 10
284.996641
 20
62.323605
 30
0.0
 10
285.749381
 20
62.710511
 30
0.0
 10
286.503690
 20
63.094593
 30
0.0
 10
287.258855
 20
63.476853
 30
0.0
 10
288.014646
 20
63.857903
 30
0.0
 10
288.770853
 20
64.238084
 30
0.0
 10
289.527372
 20
64.617648
 30
0.0
 10
290.284114
 20
64.996770
 30
0.0
 10
291.041009
 20
65.375589
 30
0.0
 10
291.798018
 20
65.754226
 30
0.0
 10
292.555154
 20
66.132813
 30
0.0
 10
293.341957
 20
66.524672
 30
0.0
 10
294.126442
 20
66.921307
 30
0.0
 10
294.907517
 20
67.324307
 30
0.0
 10
295.684280
 20
67.735820
 30
0.0
 10
296.455188
 20
68.158150
 30
0.0
 10
297.218529
 20
68.593988
 30
0.0
 10
297.972236
 20
69.046210
 30
0.0
 10
298.714034
 20
69.517732
 30
0.0
 10
299.441456
 20
70.011157
 30
0.0
 10
300.152100
 20
70.528442
 30
0.0
 10
300.843905
 20
71.070567
 30
0.0
 10
301.515537
 20
71.637440
 30
0.0
 10
302.166537
 20
72.227922
 30
0.0
 10
302.797345
 20
72.840067
 30
0.0
 10
303.409003
 20
73.471293
 30
0.0
 10
304.003196
 20
74.118972
 30
0.0
 10
304.581859
 20
74.780551
 30
0.0
 10
305.147033
 20
75.453765
 30
0.0
 10
305.700576
 20
76.136530
 30
0.0
 10
306.244264
 20
76.827170
 30
0.0
 10
306.779619
 20
77.524225
 30
0.0
 10
307.308008
 20
78.226550
 30
0.0
 10
307.830607
 20
78.933215
 30
0.0
 10
308.348422
 20
79.643476
 30
0.0
 10
308.862224
 20
80.356619
 30
0.0
 10
309.372752
 20
81.072172
 30
0.0
 10
309.880512
 20
81.789596
 30
0.0
 10
310.386067
 20
82.508630
 30
0.0
 10
310.889838
 20
83.228987
 30
0.0
 10
311.392090
 20
83.950298
 30
0.0
 10
311.893245
 20
84.672542
 30
0.0
 10
312.378945
 20
85.377578
 30
0.0
 10
312.861678
 20
86.084663
 30
0.0
 10
313.340911
 20
86.794228
 30
0.0
 10
313.815891
 20
87.506616
 30
0.0
 10
314.285793
 20
88.222351
 30
0.0
 10
314.749581
 20
88.942013
 30
0.0
 10
315.206022
 20
89.666350
 30
0.0
 10
315.653561
 20
90.396215
 30
0.0
 10
316.090267
 20
91.132651
 30
0.0
 10
316.513665
 20
91.876843
 30
0.0
 10
316.920543
 20
92.630076
 30
0.0
 10
317.306920
 20
93.394085
 30
0.0
 10
317.667545
 20
94.170631
 30
0.0
 10
317.995578
 20
94.961357
 30
0.0
 10
318.282462
 20
95.767955
 30
0.0
 10
318.517563
 20
96.591171
 30
0.0
 10
318.688627
 20
97.429860
 30
0.0
 10
318.783453
 20
98.280552
 30
0.0
 10
318.792679
 20
99.136247
 30
0.0
 10
318.713250
 20
99.988345
 30
0.0
 10
318.549963
 20
100.828444
 30
0.0
 10
318.313885
 20
101.651215
 30
0.0
 10
318.018899
 20
102.454846
 30
0.0
 10
317.678543
 20
103.240428
 30
0.0
 10
317.304362
 20
104.010633
 30
0.0
 10
316.890407
 20
104.781364
 30
0.0
 10
316.433385
 20
105.527401
 30
0.0
 10
315.936898
 20
106.247785
 30
0.0
 10
315.404628
 20
106.942224
 30
0.0
 10
314.840269
 20
107.610855
 30
0.0
 10
314.247382
 20
108.254186
 30
0.0
 10
313.629079
 20
108.873228
 30
0.0
 10
312.988282
 20
109.469055
 30
0.0
 10
312.327698
 20
110.042783
 30
0.0
 10
311.649569
 20
110.595728
 30
0.0
 10
310.955952
 20
111.129130
 30
0.0
 10
310.248561
 20
111.644270
 30
0.0
 10
309.529094
 20
112.142230
 30
0.0
 10
308.798872
 20
112.624167
 30
0.0
 10
308.058922
 20
113.091242
 30
0.0
 10
307.310431
 20
113.544345
 30
0.0
 10
306.554131
 20
113.984498
 30
0.0
 10
305.790882
 20
114.412510
 30
0.0
 10
305.021430
 20
114.829141
 30
0.0
 10
304.246313
 20
115.235162
 30
0.0
 10
303.466095
 20
115.631230
 30
0.0
 10
302.673738
 20
116.021785
 30
0.0
 10
301.885237
 20
116.420152
 30
0.0
 10
301.099678
 20
116.824036
 30
0.0
 10
300.316314
 20
117.232340
 30
0.0
 10
299.534882
 20
117.644318
 30
0.0
 10
298.755246
 20
118.059492
 30
0.0
 10
297.977182
 20
118.477636
 30
0.0
 10
297.200575
 20
118.898608
 30
0.0
 10
296.425450
 20
119.322301
 30
0.0
 10
295.651822
 20
119.748701
 30
0.0
 10
294.879681
 20
120.177897
 30
0.0
 10
294.109204
 20
120.609961
 30
0.0
 10
293.340485
 20
121.045118
 30
0.0
 10
292.573763
 20
121.483640
 30
0.0
 10
291.809146
 20
121.926060
 30
0.0
 10
291.047137
 20
122.372949
 30
0.0
 10
290.295647
 20
122.806341
 30
0.0
 10
289.539936
 20
123.232392
 30
0.0
 10
288.780250
 20
123.651176
 30
0.0
 10
288.016662
 20
124.062845
 30
0.0
 10
287.249291
 20
124.467503
 30
0.0
 10
286.478228
 20
124.865256
 30
0.0
 10
285.703732
 20
125.256104
 30
0.0
 10
284.925901
 20
125.640121
 30
0.0
 10
284.144721
 20
126.017417
 30
0.0
 10
283.360276
 20
126.388039
 30
0.0
 10
282.572771
 20
126.751965
 30
0.0
 10
281.782269
 20
127.109228
 30
0.0
 10
280.988771
 20
127.459878
 30
0.0
 10
280.192290
 20
127.803939
 30
0.0
 10
279.393062
 20
128.141332
 30
0.0
 10
278.590978
 20
128.472111
 30
0.0
 10
277.786242
 20
128.796187
 30
0.0
 10
276.978781
 20
129.113572
 30
0.0
 10
276.168694
 20
129.424197
 30
0.0
 10
275.356037
 20
129.727993
 30
0.0
 10
274.540846
 20
130.024891
 30
0.0
 10
273.723154
 20
130.314805
 30
0.0
 10
272.903004
 20
130.597631
 30
0.0
 10
272.080349
 20
130.873282
 30
0.0
 10
271.255430
 20
131.141555
 30
0.0
 10
270.428086
 20
131.402366
 30
0.0
 10
269.598314
 20
131.655556
 30
0.0
 10
268.766257
 20
131.900902
 30
0.0
 10
267.931823
 20
132.138227
 30
0.0
 10
267.095005
 20
132.367306
 30
0.0
 10
266.255986
 20
132.587834
 30
0.0
 10
265.414778
 20
132.799526
 30
0.0
 10
264.571142
 20
133.002123
 30
0.0
 10
263.725431
 20
133.195184
 30
0.0
 10
262.870485
 20
133.387719
 30
0.0
 10
262.016417
 20
133.584287
 30
0.0
 10
261.163355
 20
133.785555
 30
0.0
 10
260.311644
 20
133.992248
 30
0.0
 10
259.461432
 20
134.205265
 30
0.0
 10
258.613162
 20
134.425577
 30
0.0
 10
257.767219
 20
134.654344
 30
0.0
 10
256.923993
 20
134.892919
 30
0.0
 10
256.084052
 20
135.142839
 30
0.0
 10
255.248025
 20
135.405885
 30
0.0
 10
254.416937
 20
135.684001
 30
0.0
 10
253.591867
 20
135.979413
 30
0.0
 10
252.774144
 20
136.294575
 30
0.0
 10
251.965352
 20
136.632130
 30
0.0
 10
251.167534
 20
136.994753
 30
0.0
 10
250.382883
 20
137.385128
 30
0.0
 10
249.613965
 20
137.805630
 30
0.0
 10
248.863408
 20
138.258164
 30
0.0
 10
248.133910
 20
138.743785
 30
0.0
 10
247.427705
 20
139.262662
 30
0.0
 10
246.746466
 20
139.813890
 30
0.0
 10
246.091044
 20
140.395587
 30
0.0
 10
245.461373
 20
141.005119
 30
0.0
 10
244.856573
 20
141.639329
 30
0.0
 10
244.274984
 20
142.294976
 30
0.0
 10
243.714632
 20
142.968708
 30
0.0
 10
243.173011
 20
143.657750
 30
0.0
 10
242.647847
 20
144.359299
 30
0.0
 10
242.136685
 20
145.071242
 30
0.0
 10
241.637428
 20
145.791555
 30
0.0
 10
241.157523
 20
146.529750
 30
0.0
 10
240.700389
 20
147.282279
 30
0.0
 10
240.259624
 20
148.044444
 30
0.0
 10
239.832004
 20
148.814078
 30
0.0
 10
239.415834
 20
149.589937
 30
0.0
 10
239.010220
 20
150.371331
 30
0.0
 10
238.614769
 20
151.157970
 30
0.0
 10
238.229581
 20
151.949649
 30
0.0
 10
237.855112
 20
152.746428
 30
0.0
 10
237.492216
 20
153.548636
 30
0.0
 10
237.142419
 20
154.356554
 30
0.0
 10
236.807960
 20
155.170946
 30
0.0
 10
236.492431
 20
155.992842
 30
0.0
 10
236.165214
 20
156.814610
 30
0.0
 10
235.827965
 20
157.632304
 30
0.0
 10
235.479323
 20
158.445142
 30
0.0
 10
235.117774
 20
159.252457
 30
0.0
 10
234.741955
 20
160.053098
 30
0.0
 10
234.350388
 20
160.846168
 30
0.0
 10
233.941735
 20
161.630616
 30
0.0
 10
233.514913
 20
162.405224
 30
0.0
 10
233.068958
 20
163.169045
 30
0.0
 10
232.603370
 20
163.920965
 30
0.0
 10
232.117807
 20
164.660345
 30
0.0
 10
231.612563
 20
165.386352
 30
0.0
 10
231.088203
 20
166.098556
 30
0.0
 10
230.545536
 20
166.796893
 30
0.0
 10
229.985597
 20
167.481575
 30
0.0
 10
229.409745
 20
168.152862
 30
0.0
 10
228.819234
 20
168.811444
 30
0.0
 10
228.215526
 20
169.457954
 30
0.0
 10
227.600017
 20
170.093169
 30
0.0
 10
226.973944
 20
170.718020
 30
0.0
 10
226.338517
 20
171.333386
 30
0.0
 10
225.694962
 20
171.940021
 30
0.0
 10
225.044118
 20
172.538911
 30
0.0
 10
224.386875
 20
173.130844
 30
0.0
 10
223.724075
 20
173.716504
 30
0.0
 10
223.056311
 20
174.296658
 30
0.0
 10
222.384327
 20
174.871808
 30
0.0
 10
221.708571
 20
175.442588
 30
0.0
 10
221.029604
 20
176.009429
 30
0.0
 10
220.347786
 20
176.572829
 30
0.0
 10
219.673695
 20
177.145390
 30
0.0
 10
219.003342
 20
177.722357
 30
0.0
 10
218.336300
 20
178.303085
 30
0.0
 10
217.672180
 20
178.887178
 30
0.0
 10
217.010749
 20
179.474302
 30
0.0
 10
216.351761
 20
180.064272
 30
0.0
 10
215.695171
 20
180.656833
 30
0.0
 10
215.040864
 20
181.251876
 30
0.0
 10
214.388726
 20
181.849360
 30
0.0
 10
213.738753
 20
182.449204
 30
0.0
 10
213.090990
 20
183.051339
 30
0.0
 10
212.445389
 20
183.655831
 30
0.0
 10
211.802028
 20
184.262686
 30
0.0
 10
211.161028
 20
184.871922
 30
0.0
 10
210.522381
 20
185.483747
 30
0.0
 10
209.886276
 20
186.098258
 30
0.0
 10
209.252949
 20
186.715593
 30
0.0
 10
208.622640
 20
187.336006
 30
0.0
 10
207.995698
 20
187.959802
 30
0.0
 10
207.372583
 20
188.587389
 30
0.0
 10
206.753894
 20
189.219346
 30
0.0
 10
206.140548
 20
189.856411
 30
0.0
 10
205.533744
 20
190.499802
 30
0.0
 10
204.944129
 20
191.128286
 30
0.0
 10
204.349160
 20
191.751695
 30
0.0
 10
203.748812
 20
192.369865
 30
0.0
 10
203.142956
 20
192.982737
 30
0.0
 10
202.531606
 20
193.590102
 30
0.0
 10
201.914710
 20
194.191822
 30
0.0
 10
201.292175
 20
194.787794
 30
0.0
 10
200.664038
 20
195.377791
 30
0.0
 10
200.030276
 20
195.961645
 30
0.0
 10
199.390728
 20
196.539313
 30
0.0
 10
198.745517
 20
197.110495
 30
0.0
 10
198.094469
 20
197.675155
 30
0.0
 10
197.437670
 20
198.233033
 30
0.0
 10
196.775053
 20
198.783999
 30
0.0
 10
196.106615
 20
199.327875
 30
0.0
 10
195.432302
 20
199.864520
 30
0.0
 10
194.752148
 20
200.393730
 30
0.0
 10
194.066136
 20
200.915341
 30
0.0
 10
193.374317
 20
201.429143
 30
0.0
 10
192.676720
 20
201.934948
 30
0.0
 10
191.973231
 20
202.432673
 30
0.0
 10
191.263912
 20
202.922112
 30
0.0
 10
190.548869
 20
203.403033
 30
0.0
 10
189.828071
 20
203.875308
 30
0.0
 10
189.101630
 20
204.338719
 30
0.0
 10
188.369424
 20
204.793200
 30
0.0
 10
187.631583
 20
205.238534
 30
0.0
 10
186.888230
 20
205.674515
 30
0.0
 10
186.139486
 20
206.100955
 30
0.0
 10
185.385181
 20
206.517832
 30
0.0
 10
184.625623
 20
206.924867
 30
0.0
 10
183.860790
 20
207.321970
 30
0.0
 10
183.090913
 20
207.708929
 30
0.0
 10
182.381325
 20
208.051052
 30
0.0
 10
181.671630
 20
208.393227
 30
0.0
 10
180.962007
 20
208.735366
 30
0.0
 10
180.252300
 20
209.077547
 30
0.0
 10
179.542619
 20
209.419714
 30
0.0
 10
178.832995
 20
209.761854
 30
0.0
 10
178.123330
 20
210.104014
 30
0.0
 10
178.001351
 20
210.946776
 30
0.0
 10
177.879387
 20
211.789441
 30
0.0
 10
177.757416
 20
212.632149
 30
0.0
 10
177.635452
 20
213.474809
 30
0.0
 10
177.513486
 20
214.317482
 30
0.0
 10
177.391504
 20
215.160267
 30
0.0
 10
177.269527
 20
216.003015
 30
0.0
 10
177.147555
 20
216.845734
 30
0.0
 10
177.030111
 20
217.697849
 30
0.0
 10
176.918614
 20
218.550751
 30
0.0
 10
176.811051
 20
219.404132
 30
0.0
 10
176.706412
 20
220.257848
 30
0.0
 10
176.604091
 20
221.111954
 30
0.0
 10
176.503730
 20
221.966249
 30
0.0
 10
176.405078
 20
222.820660
 30
0.0
 10
176.307932
 20
223.675347
 30
0.0
 10
176.212187
 20
224.530082
 30
0.0
 10
176.117733
 20
225.384982
 30
0.0
 10
176.024496
 20
226.240074
 30
0.0
 10
175.932431
 20
227.095306
 30
0.0
 10
175.841506
 20
227.950648
 30
0.0
 10
175.751704
 20
228.806049
 30
0.0
 10
175.663000
 20
229.661660
 30
0.0
 10
175.575399
 20
230.517394
 30
0.0
 10
175.488915
 20
231.373215
 30
0.0
 10
175.403561
 20
232.229155
 30
0.0
 10
175.319362
 20
233.085227
 30
0.0
 10
175.236364
 20
233.941316
 30
0.0
 10
175.154592
 20
234.797633
 30
0.0
 10
175.074118
 20
235.653991
 30
0.0
 10
174.994992
 20
236.510610
 30
0.0
 10
174.917310
 20
237.367331
 30
0.0
 10
174.841177
 20
238.224082
 30
0.0
 10
174.767347
 20
239.105088
 30
0.0
 10
174.691252
 20
239.985843
 30
0.0
 10
174.612966
 20
240.866381
 30
0.0
 10
174.532547
 20
241.746796
 30
0.0
 10
174.450059
 20
242.627049
 30
0.0
 10
174.365556
 20
243.507151
 30
0.0
 10
174.279098
 20
244.386973
 30
0.0
 10
174.190710
 20
245.266694
 30
0.0
 10
174.100456
 20
246.146067
 30
0.0
 10
174.008344
 20
247.025308
 30
0.0
 10
173.914409
 20
247.904369
 30
0.0
 10
173.818670
 20
248.783279
 30
0.0
 10
173.721153
 20
249.661969
 30
0.0
 10
173.621874
 20
250.540422
 30
0.0
 10
173.520843
 20
251.418653
 30
0.0
 10
173.418061
 20
252.296692
 30
0.0
 10
173.313526
 20
253.174557
 30
0.0
 10
173.207237
 20
254.052239
 30
0.0
 10
173.099192
 20
254.929677
 30
0.0
 10
172.989378
 20
255.806871
 30
0.0
 10
172.877756
 20
256.683969
 30
0.0
 10
172.764335
 20
257.560707
 30
0.0
 10
172.649060
 20
258.437269
 30
0.0
 10
172.531901
 20
259.313585
 30
0.0
 10
172.412828
 20
260.189532
 30
0.0
 10
172.291762
 20
261.065290
 30
0.0
 10
172.168643
 20
261.940792
 30
0.0
 10
172.043407
 20
262.815953
 30
0.0
 10
171.915956
 20
263.690811
 30
0.0
 10
171.786183
 20
264.565338
 30
0.0
 10
171.653978
 20
265.439411
 30
0.0
 10
171.519164
 20
266.313189
 30
0.0
 10
171.381584
 20
267.186485
 30
0.0
 10
171.241006
 20
268.059357
 30
0.0
 10
171.097176
 20
268.931703
 30
0.0
 10
170.949774
 20
269.803427
 30
0.0
 10
170.798405
 20
270.674376
 30
0.0
 10
170.642514
 20
271.544645
 30
0.0
 10
170.481439
 20
272.413967
 30
0.0
 10
170.314262
 20
273.282123
 30
0.0
 10
170.139691
 20
274.148803
 30
0.0
 10
169.955815
 20
275.013487
 30
0.0
 10
169.759520
 20
275.875561
 30
0.0
 10
169.545319
 20
276.733351
 30
0.0
 10
169.301214
 20
277.582999
 30
0.0
 10
168.986526
 20
278.408281
 30
0.0
 10
168.567632
 20
279.145759
 30
0.0
 10
168.116151
 20
279.863667
 30
0.0
 10
167.635652
 20
280.562543
 30
0.0
 10
167.127157
 20
281.241271
 30
0.0
 10
166.588870
 20
281.896538
 30
0.0
 10
166.014510
 20
282.520325
 30
0.0
 10
165.386591
 20
283.089754
 30
0.0
 10
164.639890
 20
283.464571
 30
0.0
 10
164.078762
 20
282.818352
 30
0.0
 10
163.618662
 20
282.082099
 30
0.0
 10
163.181531
 20
281.331834
 30
0.0
 10
162.756697
 20
280.574648
 30
0.0
 10
162.339866
 20
279.812954
 30
0.0
 10
161.928853
 20
279.047995
 30
0.0
 10
161.522442
 20
278.280648
 30
0.0
 10
161.119743
 20
277.511295
 30
0.0
 10
160.720245
 20
276.740394
 30
0.0
 10
160.323471
 20
275.968067
 30
0.0
 10
159.929143
 20
275.194553
 30
0.0
 10
159.536950
 20
274.419840
 30
0.0
 10
159.146794
 20
273.644204
 30
0.0
 10
158.758444
 20
272.867550
 30
0.0
 10
158.371803
 20
272.089978
 30
0.0
 10
157.986877
 20
271.311734
 30
0.0
  0
ENDSEC
  0
SECTION
  2
OBJECTS
  0
DICTIONARY
  5
C
330
0
100
AcDbDictionary
  3
ACAD_GROUP
350
D
  3
ACAD_MLINESTYLE
350
17
  0
DICTIONARY
  5
D
330
C
100
AcDbDictionary
  0
DICTIONARY
  5
1A
330
C
100
AcDbDictionary
  0
DICTIONARY
  5
17
330
C
100
AcDbDictionary
  3
STANDARD
350
18
  0
DICTIONARY
  5
19
330
C
100
AcDbDictionary
  0
ENDSEC
  0
EOF
